# xmcd
# 
# Track frame offsets:
#   300
#   17762
#   37577
#   53112
#   66282
#   78820
#   94872
#   107407
#   123452
#   142162
#   161042
#   178435
#   193547
#   205405
# 
# Disc length: 2951 seconds
# 
# Revision: 3
# Processed by: cddbd v1.5.2PL0 Copyright (c) Steve Scherf et al.
# Submitted via: Synapstar 1.0 
# 
DISCID=c20b830e
DTITLE=Various Artist - SD012
DYEAR=1900
DGENRE=Country
TTITLE0=Reba McEntire - Heart Is A Lonely Hunter, The
TTITLE1=Clay Walker - This Woman and This Man
TTITLE2=Trisha Yearwood - Thinkin' About You
TTITLE3=Brooks and Dunn - Little Miss Honky Tonk
TTITLE4=Pam Tillis - I Was Blown Away
TTITLE5=Alabama - Give Me One More Shot
TTITLE6=Tim McGraw - Refried Dreams
TTITLE7=Joe Diffie - So Help Me Girl
TTITLE8=Tracy Byrd - Keeper Of The Stars, The
TTITLE9=Rick Trevino - Looking For The Light
TTITLE10=Martina McBride - Where I Used To Have A Heart
TTITLE11=Chely Wright - Sea Of Cowboy Hats
TTITLE12=Daron Norwood - Bad Dog No Biscuit
TTITLE13=George Strait - Adalida
EXTD=
EXTT0=
EXTT1=
EXTT2=
EXTT3=
EXTT4=
EXTT5=
EXTT6=
EXTT7=
EXTT8=
EXTT9=
EXTT10=
EXTT11=
EXTT12=
EXTT13=
PLAYORDER=
